Coordinates
version=1
nRows=60
nColumns=12
inDegrees=yes

Units are S.I. units (second, meters, Newtons, ...)
Angles are in degrees

endheader
time	SC_y	SC_z	SC_x	AC_y	AC_z	AC_x	GH_y	GH_z	GH_yy	EL_x	PS_y
       0.0              -15.19          29.04          66.49          34.22         0.5865          8.188         -165.0         -16.66          129.8          98.16          96.37
   0.04481              -15.19          29.04          66.49          34.22         0.5847          8.185         -164.9         -16.65          129.8          98.15          96.37
   0.08962              -15.19          29.04          66.49          34.22         0.5828          8.183         -164.9         -16.65          129.8          98.14          96.36
    0.1344              -15.19          29.04          66.49          34.23         0.5808           8.18         -164.9         -16.64          129.8          98.13          96.36
    0.1792              -15.19          29.04          66.49          34.23         0.5787          8.177         -164.8         -16.64          129.7          98.12          96.35
    0.2241              -15.19          29.03          66.48          34.24         0.5764          8.173         -164.8         -16.63          129.7          98.11          96.35
    0.2689               -15.2          29.03          66.48          34.25          0.574           8.17         -164.7         -16.62          129.7           98.1          96.34
    0.3137               -15.2          29.03          66.48          34.25         0.5714          8.166         -164.7         -16.62          129.7          98.09          96.34
    0.3585               -15.2          29.03          66.48          34.26         0.5686          8.162         -164.6         -16.61          129.7          98.07          96.33
    0.4033               -15.2          29.02          66.48          34.26         0.5656          8.158         -164.6          -16.6          129.7          98.06          96.33
    0.4481               -15.2          29.02          66.48          34.27         0.5624          8.153         -164.5         -16.59          129.6          98.04          96.32
    0.4929              -15.21          29.01          66.48          34.28         0.5589          8.148         -164.4         -16.58          129.6          98.02          96.31
    0.5377              -15.21          29.01          66.48          34.29         0.5552          8.143         -164.4         -16.57          129.6           98.0           96.3
    0.5826              -15.21          29.01          66.48           34.3         0.5512          8.137         -164.3         -16.56          129.6          97.98          96.29
    0.6274              -15.22           29.0          66.48          34.31         0.5468          8.131         -164.2         -16.55          129.5          97.96          96.28
    0.6722              -15.22           29.0          66.48          34.32         0.5421          8.124         -164.1         -16.53          129.5          97.93          96.27
     0.717              -15.22          28.99          66.48          34.33          0.537          8.116         -164.0         -16.52          129.5          97.91          96.26
    0.7618              -15.23          28.99          66.48          34.34         0.5314          8.108         -163.9          -16.5          129.4          97.88          96.25
    0.8066              -15.23          28.98          66.48          34.36         0.5253            8.1         -163.8         -16.48          129.4          97.85          96.24
    0.8514              -15.24          28.97          66.48          34.37         0.5186           8.09         -163.6         -16.47          129.3          97.81          96.22
    0.8962              -15.24          28.96          66.48          34.39         0.5113          8.079         -163.5         -16.44          129.3          97.78           96.2
     0.941              -15.25          28.96          66.48          34.41         0.5032          8.068         -163.3         -16.42          129.2          97.73          96.19
    0.9859              -15.25          28.95          66.47          34.43         0.4943          8.055         -163.2          -16.4          129.2          97.69          96.17
     1.031              -15.26          28.94          66.47          34.45         0.4844          8.041         -163.0         -16.37          129.1          97.64          96.15
     1.075              -15.27          28.92          66.47          34.48         0.4734          8.025         -162.8         -16.34          129.0          97.58          96.12
      1.12              -15.28          28.91          66.47           34.5         0.4611          8.007         -162.5          -16.3          129.0          97.52          96.09
     1.165              -15.29           28.9          66.47          34.54         0.4474          7.987         -162.2         -16.26          128.9          97.45          96.06
      1.21               -15.3          28.88          66.47          34.57          0.432          7.965         -161.9         -16.22          128.8          97.37          96.03
     1.255              -15.31          28.86          66.46          34.61         0.4145           7.94         -161.6         -16.17          128.7          97.28          95.99
       1.3              -15.33          28.84          66.46          34.66         0.3947          7.911         -161.2         -16.11          128.5          97.18          95.95
     1.344              -15.35          28.82          66.46          34.71         0.3721          7.878         -160.8         -16.05          128.4          97.06           95.9
     1.389              -15.37          28.79          66.45          34.77         0.3461          7.841         -160.3         -15.97          128.2          96.92          95.84
     1.434              -15.39          28.76          66.45          34.84         0.3162          7.797         -159.7         -15.89          128.0          96.77          95.77
     1.479              -15.41          28.72          66.45          34.92         0.2813          7.747         -159.0         -15.79          127.8          96.59          95.69
     1.524              -15.44          28.68          66.44          35.01         0.2406          7.688         -158.2         -15.67          127.5          96.38           95.6
     1.568              -15.48          28.63          66.43          35.12         0.1925          7.619         -157.2         -15.53          127.2          96.13           95.5
     1.613              -15.52          28.57          66.43          35.25         0.1355          7.536         -156.1         -15.37          126.8          95.84          95.37
     1.658              -15.57          28.49          66.42          35.41        0.06704          7.437         -154.8         -15.17          126.4          95.49          95.22
     1.703              -15.63           28.4          66.41           35.6       -0.01573          7.318         -153.1         -14.94          125.8          95.06          95.04
     1.748              -15.71           28.3          66.39          35.83        -0.1169          7.172         -151.1         -14.65          125.1          94.54          94.81
     1.792               -15.8          28.16          66.38          36.12        -0.2417          6.991         -148.7         -14.29          124.3           93.9          94.54
     1.837              -15.92           28.0          66.36          36.48        -0.3973          6.767         -145.6         -13.84          123.3           93.1          94.19
     1.882              -16.06          27.79          66.33          36.93        -0.5933          6.483         -141.8         -13.28          122.0          92.09          93.76
     1.927              -16.25          27.53           66.3           37.5        -0.8426          6.123         -136.9         -12.57          120.3           90.8           93.2
     1.972              -16.49          27.19          66.26          38.24         -1.162          5.662         -130.6         -11.65          118.2          89.16           92.5
     2.017              -16.79          26.75          66.21          39.18         -1.571          5.071         -122.5         -10.48          115.5          87.05          91.59
     2.061              -17.18           26.2          66.14          40.38         -2.094          4.315         -112.3         -8.986          112.1          84.36          90.43
     2.106              -17.67           25.5          66.05           41.9         -2.751          3.365         -99.33         -7.104          107.7          80.97          88.97
     2.151              -18.27          24.65          65.95          43.74         -3.553          2.208         -83.57          -4.81          102.4          76.84          87.19
     2.196              -18.96          23.66          65.83          45.88         -4.481         0.8658          -65.3         -2.151          96.28          72.06          85.13
     2.241              -19.71          22.59          65.69          48.19         -5.487        -0.5872         -45.52         0.7282          89.63          66.88           82.9
     2.285              -20.46          21.52          65.56           50.5         -6.493          -2.04         -25.74          3.607          82.98           61.7          80.67
      2.33              -21.15          20.54          65.44          52.64         -7.421         -3.382          -7.47          6.266          76.83          56.92          78.61
     2.375              -21.75          19.69          65.34          54.48         -8.223          -4.54           8.29           8.56          71.54          52.79          76.84
      2.42              -22.24          18.99          65.25          55.99          -8.88          -5.49          21.22          10.44          67.19           49.4          75.38
     2.465              -22.63          18.43          65.18           57.2         -9.403         -6.245          31.51          11.94          63.73          46.71          74.22
     2.509              -22.93           18.0          65.13          58.14         -9.812         -6.837          39.56          13.11          61.02           44.6          73.31
     2.554              -23.17          17.66          65.09          58.87         -10.13         -7.298          45.83          14.02          58.91          42.96           72.6
     2.599              -23.36          17.39          65.06          59.45         -10.38         -7.658          50.74          14.74          57.26          41.67          72.05
     2.644               -23.5          17.19          65.03           59.9         -10.58         -7.941          54.59           15.3          55.97          40.66          71.62
